<svg width="24" height="24" viewBox="-2 5 30 24" xmlns="http://www.w3.org/2000/svg">
  <g id="svgGroup" stroke-linecap="round" fill-rule="nonzero" fill="#3996DB" stroke="#000000" stroke-width="0.5">
      <path d="M9.410 12.305L9.410 25.652L4.781 25.652L4.781 12.305L0.598 12.305L0.598 8.520L13.582 8.520L13.582 12.305L9.410 12.305ZM26.234 20.449L26.234 20.449Q26.234 21.844 25.531 23.092Q24.828 24.340 23.346 25.113Q21.863 25.887 19.520 25.887L19.520 25.887Q18.348 25.887 17.463 25.781Q16.578 25.676 15.816 25.436Q15.055 25.195 14.234 24.809L14.234 24.809L14.234 20.684Q15.629 21.387 17.047 21.756Q18.465 22.125 19.613 22.125L19.613 22.125Q20.305 22.125 20.744 21.961Q21.184 21.797 21.395 21.510Q21.605 21.223 21.605 20.848L21.605 20.848Q21.605 20.402 21.295 20.092Q20.984 19.781 20.305 19.441Q19.625 19.102 18.512 18.598L18.512 18.598Q17.563 18.152 16.795 17.684Q16.027 17.215 15.482 16.611Q14.938 16.008 14.645 15.199Q14.352 14.391 14.352 13.289L14.352 13.289Q14.352 11.637 15.166 10.518Q15.980 9.398 17.439 8.836Q18.898 8.273 20.809 8.273L20.809 8.273Q22.484 8.273 23.826 8.648Q25.168 9.023 26.234 9.504L26.234 9.504L24.816 13.078Q23.715 12.574 22.648 12.275Q21.582 11.977 20.668 11.977L20.668 11.977Q20.070 11.977 19.689 12.123Q19.309 12.270 19.127 12.516Q18.945 12.762 18.945 13.078L18.945 13.078Q18.945 13.477 19.256 13.793Q19.566 14.109 20.299 14.479Q21.031 14.848 22.297 15.434L22.297 15.434Q23.551 15.996 24.430 16.646Q25.309 17.297 25.771 18.205Q26.234 19.113 26.234 20.449Z" />
  </g>
</svg>